<svg id="Layer_1" data-name="Layer 1" xmlns="http://www.w3.org/2000/svg" viewBox="0 0 19.26 31.07"><defs><style>.cls-1{fill:#89acff;}.cls-2{fill:#d5f7c6;}.cls-3{fill:#8cc63f;stroke-width:0.25px;}.cls-3,.cls-4{stroke:#000;stroke-miterlimit:10;}.cls-4{fill:#2ac6ff;stroke-width:0.75px;}</style></defs><title>openbox</title><rect class="cls-1" x="0.5" y="0.98" width="18.26" height="29.59" rx="8" ry="8"/><path d="M17,2a7.51,7.51,0,0,1,7.5,7.5V23.09a7.52,7.52,0,0,1-7.5,7.5H14.74a7.51,7.51,0,0,1-7.5-7.5V9.5A7.5,7.5,0,0,1,14.74,2H17m0-1H14.74a8.5,8.5,0,0,0-8.5,8.5V23.09a8.5,8.5,0,0,0,8.5,8.5H17a8.51,8.51,0,0,0,8.5-8.5V9.5A8.51,8.51,0,0,0,17,1Z" transform="translate(-6.24 -0.52)"/><rect class="cls-2" x="4.61" y="18.45" width="10.03" height="1.84" rx="0.75" ry="0.75"/><path d="M20.13,19.22a.5.5,0,0,1,.5.5v.34a.5.5,0,0,1-.5.5H11.6a.51.51,0,0,1-.5-.5v-.34a.5.5,0,0,1,.5-.5h8.53m0-.5H11.6a1,1,0,0,0-1,1v.34a1,1,0,0,0,1,1h8.53a1,1,0,0,0,1-1v-.34a1,1,0,0,0-1-1Z" transform="translate(-6.24 -0.52)"/><rect class="cls-2" x="4.61" y="21.96" width="10.03" height="1.84" rx="0.75" ry="0.75"/><path d="M20.13,22.73a.5.5,0,0,1,.5.5v.34a.5.5,0,0,1-.5.5H11.6a.51.51,0,0,1-.5-.5v-.34a.5.5,0,0,1,.5-.5h8.53m0-.5H11.6a1,1,0,0,0-1,1v.34a1,1,0,0,0,1,1h8.53a1,1,0,0,0,1-1v-.34a1,1,0,0,0-1-1Z" transform="translate(-6.24 -0.52)"/><rect class="cls-2" x="4.61" y="14.94" width="10.03" height="1.84" rx="0.75" ry="0.75"/><path d="M20.13,15.71a.5.5,0,0,1,.5.5v.34a.5.5,0,0,1-.5.5H11.6a.51.51,0,0,1-.5-.5v-.34a.5.5,0,0,1,.5-.5h8.53m0-.5H11.6a1,1,0,0,0-1,1v.34a1,1,0,0,0,1,1h8.53a1,1,0,0,0,1-1v-.34a1,1,0,0,0-1-1Z" transform="translate(-6.24 -0.52)"/><circle class="cls-3" cx="13.8" cy="11.18" r="1.17"/><path class="cls-4" d="M7,8c0,2.73,5.69,2.62,10,2,2.4-.35,8-.6,8-2,0-3-1-6-8-7C11.37.2,7,4,7,8Z" transform="translate(-6.24 -0.52)"/></svg>