<svg id="Layer_1" data-name="Layer 1" xmlns="http://www.w3.org/2000/svg" viewBox="0 0 179.38 95.25"><defs><style>.cls-1{fill:#89acff;}.cls-2{fill:#d5f7c6;}.cls-3{fill:#8cc63f;stroke-width:0.25px;}.cls-3,.cls-4,.cls-5,.cls-6,.cls-7{stroke:#000;stroke-miterlimit:10;}.cls-4{fill:#29abe2;}.cls-4,.cls-5,.cls-6,.cls-7{stroke-width:0.75px;}.cls-5{fill:#fff;}.cls-6{fill:#c7b299;}.cls-7{fill:none;}</style></defs><title>structure_openbox</title><rect class="cls-1" x="0.5" y="59.92" width="21.56" height="34.83" rx="8" ry="8"/><path d="M24.06,62.17a7.52,7.52,0,0,1,7.5,7.5V88.5a7.51,7.51,0,0,1-7.5,7.5H18.5A7.5,7.5,0,0,1,11,88.5V69.67a7.51,7.51,0,0,1,7.5-7.5h5.56m0-1H18.5a8.51,8.51,0,0,0-8.5,8.5V88.5A8.51,8.51,0,0,0,18.5,97h5.56a8.51,8.51,0,0,0,8.5-8.5V69.67a8.51,8.51,0,0,0-8.5-8.5Z" transform="translate(-10 -1.75)"/><rect class="cls-2" x="5.56" y="80.9" width="11.44" height="2.15" rx="0.75" ry="0.75"/><path d="M26.25,82.9a.5.5,0,0,1,.5.5v.66a.5.5,0,0,1-.5.5H16.31a.5.5,0,0,1-.5-.5V83.4a.5.5,0,0,1,.5-.5h9.94m0-.5H16.31a1,1,0,0,0-1,1v.66a1,1,0,0,0,1,1h9.94a1,1,0,0,0,1-1V83.4a1,1,0,0,0-1-1Z" transform="translate(-10 -1.75)"/><rect class="cls-2" x="5.56" y="84.88" width="11.44" height="2.15" rx="0.75" ry="0.75"/><path d="M26.25,86.88a.5.5,0,0,1,.5.5V88a.5.5,0,0,1-.5.5H16.31a.5.5,0,0,1-.5-.5v-.66a.5.5,0,0,1,.5-.5h9.94m0-.5H16.31a1,1,0,0,0-1,1V88a1,1,0,0,0,1,1h9.94a1,1,0,0,0,1-1v-.66a1,1,0,0,0-1-1Z" transform="translate(-10 -1.75)"/><rect class="cls-2" x="5.56" y="76.92" width="11.44" height="2.15" rx="0.75" ry="0.75"/><path d="M26.25,78.92a.5.5,0,0,1,.5.5v.66a.5.5,0,0,1-.5.5H16.31a.5.5,0,0,1-.5-.5v-.66a.5.5,0,0,1,.5-.5h9.94m0-.5H16.31a1,1,0,0,0-1,1v.66a1,1,0,0,0,1,1h9.94a1,1,0,0,0,1-1v-.66a1,1,0,0,0-1-1Z" transform="translate(-10 -1.75)"/><circle class="cls-3" cx="15.92" cy="72.69" r="1.33"/><rect class="cls-1" x="39.65" y="59.92" width="21.56" height="34.83" rx="8" ry="8"/><path d="M63.21,62.17a7.51,7.51,0,0,1,7.5,7.5V88.5a7.5,7.5,0,0,1-7.5,7.5H57.65a7.51,7.51,0,0,1-7.5-7.5V69.67a7.52,7.52,0,0,1,7.5-7.5h5.56m0-1H57.65a8.51,8.51,0,0,0-8.5,8.5V88.5a8.51,8.51,0,0,0,8.5,8.5h5.56a8.5,8.5,0,0,0,8.5-8.5V69.67a8.5,8.5,0,0,0-8.5-8.5Z" transform="translate(-10 -1.75)"/><rect class="cls-2" x="44.71" y="80.9" width="11.44" height="2.15" rx="0.75" ry="0.75"/><path d="M65.4,82.9a.5.5,0,0,1,.5.5v.66a.5.5,0,0,1-.5.5H55.46a.51.51,0,0,1-.5-.5V83.4a.51.51,0,0,1,.5-.5H65.4m0-.5H55.46a1,1,0,0,0-1,1v.66a1,1,0,0,0,1,1H65.4a1,1,0,0,0,1-1V83.4a1,1,0,0,0-1-1Z" transform="translate(-10 -1.75)"/><rect class="cls-2" x="44.71" y="84.88" width="11.44" height="2.15" rx="0.75" ry="0.75"/><path d="M65.4,86.88a.5.5,0,0,1,.5.5V88a.5.5,0,0,1-.5.5H55.46A.51.51,0,0,1,55,88v-.66a.51.51,0,0,1,.5-.5H65.4m0-.5H55.46a1,1,0,0,0-1,1V88a1,1,0,0,0,1,1H65.4a1,1,0,0,0,1-1v-.66a1,1,0,0,0-1-1Z" transform="translate(-10 -1.75)"/><rect class="cls-2" x="44.71" y="76.92" width="11.44" height="2.15" rx="0.75" ry="0.75"/><path d="M65.4,78.92a.5.5,0,0,1,.5.5v.66a.5.5,0,0,1-.5.5H55.46a.51.51,0,0,1-.5-.5v-.66a.51.51,0,0,1,.5-.5H65.4m0-.5H55.46a1,1,0,0,0-1,1v.66a1,1,0,0,0,1,1H65.4a1,1,0,0,0,1-1v-.66a1,1,0,0,0-1-1Z" transform="translate(-10 -1.75)"/><circle class="cls-3" cx="55.08" cy="72.69" r="1.33"/><rect class="cls-4" x="71.43" y="0.38" width="38.48" height="18.58" rx="3.4" ry="3.4"/><rect class="cls-5" x="102.66" y="4.11" width="14.51" height="13.93" rx="2.87" ry="2.87" transform="translate(209.84 20.41) rotate(180)"/><rect class="cls-6" x="65.42" y="70.71" width="11.56" height="18.58" rx="3.14" ry="3.14"/><line class="cls-7" x1="67.52" y1="82.53" x2="74.88" y2="82.53"/><line class="cls-7" x1="67.52" y1="84.22" x2="74.88" y2="84.22"/><line class="cls-7" x1="67.52" y1="85.91" x2="74.88" y2="85.91"/><line class="cls-7" x1="67.52" y1="79.16" x2="74.88" y2="79.16"/><line class="cls-7" x1="67.52" y1="76.68" x2="74.88" y2="76.68"/><rect class="cls-6" x="25.27" y="70.71" width="11.56" height="18.58" rx="3.14" ry="3.14"/><line class="cls-7" x1="27.37" y1="82.53" x2="34.73" y2="82.53"/><line class="cls-7" x1="27.37" y1="84.22" x2="34.73" y2="84.22"/><line class="cls-7" x1="27.37" y1="85.91" x2="34.73" y2="85.91"/><line class="cls-7" x1="27.37" y1="79.16" x2="34.73" y2="79.16"/><line class="cls-7" x1="27.37" y1="76.68" x2="34.73" y2="76.68"/><rect class="cls-6" x="167.44" y="69.71" width="11.56" height="18.58" rx="3.14" ry="3.14"/><line class="cls-7" x1="169.54" y1="81.53" x2="176.9" y2="81.53"/><line class="cls-7" x1="169.54" y1="83.22" x2="176.9" y2="83.22"/><line class="cls-7" x1="169.54" y1="84.91" x2="176.9" y2="84.91"/><line class="cls-7" x1="169.54" y1="78.16" x2="176.9" y2="78.16"/><line class="cls-7" x1="169.54" y1="75.68" x2="176.9" y2="75.68"/><rect class="cls-1" x="142.67" y="58.92" width="21.56" height="34.83" rx="8" ry="8"/><path d="M166.23,61.17a7.51,7.51,0,0,1,7.5,7.5V87.5a7.5,7.5,0,0,1-7.5,7.5h-5.56a7.51,7.51,0,0,1-7.5-7.5V68.67a7.52,7.52,0,0,1,7.5-7.5h5.56m0-1h-5.56a8.51,8.51,0,0,0-8.5,8.5V87.5a8.51,8.51,0,0,0,8.5,8.5h5.56a8.5,8.5,0,0,0,8.5-8.5V68.67a8.5,8.5,0,0,0-8.5-8.5Z" transform="translate(-10 -1.75)"/><rect class="cls-2" x="147.73" y="79.9" width="11.44" height="2.15" rx="0.75" ry="0.75"/><path d="M168.42,81.9a.5.5,0,0,1,.5.5v.66a.5.5,0,0,1-.5.5h-9.94a.51.51,0,0,1-.5-.5V82.4a.51.51,0,0,1,.5-.5h9.94m0-.5h-9.94a1,1,0,0,0-1,1v.66a1,1,0,0,0,1,1h9.94a1,1,0,0,0,1-1V82.4a1,1,0,0,0-1-1Z" transform="translate(-10 -1.75)"/><rect class="cls-2" x="147.73" y="83.88" width="11.44" height="2.15" rx="0.75" ry="0.75"/><path d="M168.42,85.88a.5.5,0,0,1,.5.5V87a.5.5,0,0,1-.5.5h-9.94a.51.51,0,0,1-.5-.5v-.66a.51.51,0,0,1,.5-.5h9.94m0-.5h-9.94a1,1,0,0,0-1,1V87a1,1,0,0,0,1,1h9.94a1,1,0,0,0,1-1v-.66a1,1,0,0,0-1-1Z" transform="translate(-10 -1.75)"/><rect class="cls-2" x="147.73" y="75.92" width="11.44" height="2.15" rx="0.75" ry="0.75"/><path d="M168.42,77.92a.5.5,0,0,1,.5.5v.66a.5.5,0,0,1-.5.5h-9.94a.51.51,0,0,1-.5-.5v-.66a.51.51,0,0,1,.5-.5h9.94m0-.5h-9.94a1,1,0,0,0-1,1v.66a1,1,0,0,0,1,1h9.94a1,1,0,0,0,1-1v-.66a1,1,0,0,0-1-1Z" transform="translate(-10 -1.75)"/><circle class="cls-3" cx="158.1" cy="71.69" r="1.33"/><rect class="cls-6" x="81.77" y="24.92" width="17.34" height="27.87" rx="3.14" ry="3.14"/><line class="cls-7" x1="84.92" y1="42.66" x2="95.96" y2="42.66"/><line class="cls-7" x1="84.92" y1="45.19" x2="95.96" y2="45.19"/><line class="cls-7" x1="84.92" y1="47.72" x2="95.96" y2="47.72"/><line class="cls-7" x1="84.92" y1="37.59" x2="95.96" y2="37.59"/><line class="cls-7" x1="84.92" y1="33.88" x2="95.96" y2="33.88"/></svg>